<svg width="134" height="32" viewBox="0 0 134 32" fill="none" xmlns="http://www.w3.org/2000/svg">
<g id="creative_commons_logo.svg" clip-path="url(#clip0_34_628)">
<g id="Foreground">
<g id="Group">
<path id="Vector" fill-rule="evenodd" clip-rule="evenodd" d="M42.0625 21.7016C40.8303 19.4916 38.7621 18.6077 36.3859 18.6077C32.8655 18.6077 30.0933 21.0828 30.0933 25.2817C30.0933 29.569 32.6895 31.9557 36.5179 31.9557C38.9381 31.9557 41.0064 30.6298 42.1505 28.5966L39.4662 27.2264C38.8501 28.6408 37.9701 29.0828 36.8259 29.0828C34.8457 29.0828 33.9657 27.4474 33.9657 25.2375C33.9657 23.0718 34.7137 21.3922 36.8259 21.3922C37.398 21.3922 38.5421 21.7016 39.2022 23.116L42.0625 21.7016Z" fill="black"/>
<path id="Vector_2" fill-rule="evenodd" clip-rule="evenodd" d="M48.8391 21.4806C50.9513 21.4806 51.8754 23.116 51.8754 25.1491C51.8754 27.4474 50.9513 29.127 48.8391 29.127C46.7269 29.127 45.8028 27.4916 45.8028 25.2817C45.8468 23.116 46.7269 21.4806 48.8391 21.4806ZM48.8391 18.6077C44.8787 18.6077 42.1064 21.0386 42.1064 25.2817C42.1064 29.569 44.8787 31.9557 48.8391 31.9557C52.7995 31.9557 55.5718 29.5248 55.5718 25.2817C55.6158 20.9944 52.7995 18.6077 48.8391 18.6077Z" fill="black"/>
<path id="Vector_3" fill-rule="evenodd" clip-rule="evenodd" d="M56.3638 31.6463H60.0601V23.7347C60.0601 22.5856 60.5442 21.6132 62.0403 21.6132C63.4485 21.6132 63.8445 22.453 63.8445 23.6905V31.6463H67.5409V23.8231C67.5409 22.5414 68.201 21.6132 69.4331 21.6132C70.8412 21.6132 71.3253 22.4088 71.3253 24.2209V31.6463H75.0216V21.9226C75.0216 19.0055 72.3374 18.5635 71.1052 18.5635C69.6091 18.5635 68.245 19.0055 67.0568 20.243C66.2208 19.1381 65.1646 18.5635 63.7125 18.5635C62.5684 18.5635 60.9842 18.9171 60.0601 20.022V18.9171H56.3638V31.6463Z" fill="black"/>
<path id="Vector_4" fill-rule="evenodd" clip-rule="evenodd" d="M76.2539 31.6463H79.9503V23.7347C79.9503 22.5856 80.4343 21.6132 81.9305 21.6132C83.3386 21.6132 83.7347 22.453 83.7347 23.6905V31.6463H87.431V23.8231C87.431 22.5414 88.0911 21.6132 89.3232 21.6132C90.7314 21.6132 91.2154 22.4088 91.2154 24.2209V31.6463H94.9118V21.9226C94.9118 19.0055 92.2275 18.5635 90.9954 18.5635C89.4992 18.5635 88.1351 19.0055 86.947 20.243C86.1109 19.1381 85.0548 18.5635 83.6026 18.5635C82.4585 18.5635 80.8744 18.9171 79.9503 20.022V18.9171H76.2539V31.6463Z" fill="black"/>
<path id="Vector_5" fill-rule="evenodd" clip-rule="evenodd" d="M102.437 21.4806C104.549 21.4806 105.473 23.116 105.473 25.1491C105.473 27.4474 104.549 29.127 102.437 29.127C100.324 29.127 99.4002 27.4916 99.4002 25.2817C99.4442 23.116 100.324 21.4806 102.437 21.4806ZM102.437 18.6077C98.4761 18.6077 95.7039 21.0386 95.7039 25.2817C95.7039 29.569 98.4761 31.9557 102.437 31.9557C106.397 31.9557 109.169 29.5248 109.169 25.2817C109.213 20.9944 106.397 18.6077 102.437 18.6077Z" fill="black"/>
<path id="Vector_6" fill-rule="evenodd" clip-rule="evenodd" d="M110.181 31.6463H113.878V23.7347C113.878 22.5856 114.362 21.6132 115.858 21.6132C117.266 21.6132 117.662 22.453 117.662 23.6905V31.6463H121.359V22.2762C121.359 20.3756 120.522 18.6077 117.53 18.6077C116.386 18.6077 114.802 18.9613 113.878 20.0662V18.9613H110.181V31.6463Z" fill="black"/>
<path id="Vector_7" fill-rule="evenodd" clip-rule="evenodd" d="M133.812 20.4198C132.096 19.2707 130.159 18.5635 128.223 18.5635C125.671 18.5635 122.855 19.801 122.855 23.0276C122.855 27.5359 130.335 25.9889 130.335 27.9336C130.335 29.0828 128.927 29.2154 128.311 29.2154C126.639 29.2154 125.451 28.5082 124.307 27.4033L122.019 29.3922C123.867 31.116 125.451 31.9115 128.223 31.9115C130.995 31.9115 133.944 30.7182 133.944 27.3591C133.944 22.5856 126.463 24.3977 126.463 22.232C126.463 21.569 127.123 21.2596 128.047 21.2596C129.235 21.2596 130.819 21.7458 131.568 22.6298L133.812 20.4198Z" fill="black"/>
<path id="Vector_8" fill-rule="evenodd" clip-rule="evenodd" d="M42.0625 7.07171C40.8303 4.86176 38.7621 3.97778 36.3859 3.97778C32.8655 3.97778 30.0933 6.45292 30.0933 10.6518C30.0933 14.9391 32.6895 17.3258 36.5179 17.3258C38.9381 17.3258 41.0064 15.9999 42.1505 13.9667L39.4662 12.5966C38.8501 14.0109 37.9701 14.4529 36.8259 14.4529C34.8457 14.4529 33.9657 12.8176 33.9657 10.6076C33.9657 8.44187 34.7137 6.76231 36.8259 6.76231C37.398 6.76231 38.5421 7.07171 39.2022 8.48607L42.0625 7.07171Z" fill="black"/>
<path id="Vector_9" fill-rule="evenodd" clip-rule="evenodd" d="M42.9427 17.0166H46.6391V9.67963C46.6391 8.26526 47.5191 7.86747 49.7194 7.60228L50.1154 7.55808L50.0714 4.24316C48.7513 4.33156 47.3871 4.81775 46.5951 5.56913V4.28736H42.8987V17.0166H42.9427Z" fill="black"/>
<path id="Vector_10" fill-rule="evenodd" clip-rule="evenodd" d="M62.7886 11.4474C62.7446 7.51369 61.2045 3.97778 56.584 3.97778C52.7116 3.97778 50.3794 6.54132 50.3794 11.0496C50.3794 14.6297 52.6676 17.37 56.584 17.37C59.4003 17.37 61.4245 16.2651 62.7446 13.8341L59.9724 12.3756C58.9162 13.9225 58.2562 14.6297 56.892 14.6297C55.7039 14.6297 54.1638 13.8783 54.1198 11.4474H62.7886ZM54.0318 9.14905C54.2078 7.4695 55.4839 6.71811 56.54 6.71811C57.5961 6.71811 58.9603 7.2927 59.0483 9.14905H54.0318Z" fill="black"/>
<path id="Vector_11" fill-rule="evenodd" clip-rule="evenodd" d="M71.2815 11.7126C71.2815 13.6573 70.1814 14.6297 68.7293 14.6297C67.8052 14.6297 67.0131 14.1877 67.0131 13.2154C67.0131 12.1988 67.8492 11.8452 68.8173 11.58L71.3255 10.8728V11.7126H71.2815ZM74.8899 7.64629C74.8459 4.77336 72.6897 3.97778 69.2573 3.97778C67.5411 3.97778 64.1528 4.33137 64.0648 7.95568H67.6291C67.8052 6.67392 68.3772 6.27613 69.5653 6.27613C70.5774 6.27613 71.3255 6.67392 71.3255 7.64629V8.70707L69.9614 8.88386C65.913 9.45845 63.4487 10.5192 63.4487 13.6131C63.4487 16.0441 65.2529 17.37 67.6732 17.37C68.9933 17.37 70.8415 16.7071 71.5015 15.7347H71.5455C71.5895 16.1767 71.6336 16.6187 71.7656 17.0607H75.1979C74.8899 16.2651 74.8459 15.2927 74.8459 14.4087V7.64629H74.8899Z" fill="black"/>
<path id="Vector_12" fill-rule="evenodd" clip-rule="evenodd" d="M83.6026 4.55255H81.4024V0.839844H77.706V4.50835H75.9019V6.80669H77.706V13.4807C77.706 15.3371 78.1461 17.326 81.3144 17.326C82.1065 17.326 83.2066 17.2376 83.6906 17.1934V14.2321C83.5146 14.2763 82.9866 14.3205 82.5905 14.3205C81.9305 14.3205 81.4024 14.0553 81.4024 13.0387V6.85089H83.6026V4.55255Z" fill="black"/>
<path id="Vector_13" fill-rule="evenodd" clip-rule="evenodd" d="M85.0107 4.28729V17.0166H88.7071V4.28729H85.0107ZM88.7071 2.87293V0H85.0107V2.87293H88.7071Z" fill="black"/>
<path id="Vector_14" fill-rule="evenodd" clip-rule="evenodd" d="M93.7236 17.0166H97.4639L101.776 4.28735H97.816L95.6598 13.3039H95.5717L93.4155 4.28735H89.4111L93.7236 17.0166Z" fill="black"/>
<path id="Vector_15" fill-rule="evenodd" clip-rule="evenodd" d="M113.79 11.4474C113.746 7.51369 112.162 3.97778 107.541 3.97778C103.669 3.97778 101.336 6.54132 101.336 11.0496C101.336 14.6297 103.625 17.37 107.541 17.37C110.357 17.37 112.382 16.2651 113.702 13.8341L110.929 12.3756C109.873 13.9225 109.213 14.6297 107.849 14.6297C106.661 14.6297 105.121 13.8783 105.077 11.4474H113.79ZM105.033 9.14905C105.209 7.4695 106.485 6.71811 107.541 6.71811C108.597 6.71811 109.961 7.2927 110.049 9.14905H105.033Z" fill="black"/>
<g id="Group_2">
<path id="Vector_16" fill-rule="evenodd" clip-rule="evenodd" d="M14.4718 3.75684C10.6434 3.75684 7.29908 5.1712 4.70282 7.82313C2.01855 10.5635 0.566406 14.0994 0.566406 17.7679C0.566406 21.4806 1.97455 24.9281 4.65882 27.6242C7.34308 30.3204 10.8194 31.7789 14.4718 31.7789C18.1242 31.7789 21.6885 30.3204 24.4608 27.58C27.0571 25.0165 28.4212 21.6132 28.4212 17.7679C28.4212 13.9668 27.0571 10.5193 24.4168 7.86733C21.7325 5.1712 18.3002 3.75684 14.4718 3.75684ZM14.5158 6.27617C17.6401 6.27617 20.4564 7.46954 22.6126 9.63529C24.7688 11.801 25.9129 14.6298 25.9129 17.7237C25.9129 20.8618 24.8128 23.6463 22.6566 25.7237C20.4124 27.9336 17.5081 29.127 14.5158 29.127C11.4795 29.127 8.66322 27.9336 6.507 25.7679C4.30678 23.6463 3.07466 20.7734 3.07466 17.7679C3.07466 14.7182 4.30678 11.8452 6.463 9.63529C8.61921 7.42534 11.3915 6.27617 14.5158 6.27617Z" fill="black"/>
<path id="Vector_17" fill-rule="evenodd" clip-rule="evenodd" d="M14.3398 15.4252C13.5477 13.9667 12.2276 13.3921 10.6434 13.3921C8.35521 13.3921 6.55103 15.0274 6.55103 17.7236C6.55103 20.5081 8.2672 22.0551 10.6874 22.0551C12.2716 22.0551 13.5917 21.1711 14.3398 19.8893L12.6236 19.0053C12.2276 19.9335 11.6555 20.1987 10.9075 20.1987C9.63133 20.1987 9.05928 19.1379 9.05928 17.7236C9.05928 16.3092 9.54332 15.2484 10.9075 15.2484C11.2595 15.2484 12.0076 15.4694 12.4476 16.3976L14.3398 15.4252Z" fill="black"/>
<path id="Vector_18" fill-rule="evenodd" clip-rule="evenodd" d="M22.3925 15.4252C21.6005 13.9667 20.2803 13.3921 18.6962 13.3921C16.4079 13.3921 14.6038 15.0274 14.6038 17.7236C14.6038 20.5081 16.3199 22.0551 18.7402 22.0551C20.3243 22.0551 21.6445 21.1711 22.3925 19.8893L20.6764 19.0053C20.2803 19.9335 19.7083 20.1987 18.9602 20.1987C17.6841 20.1987 17.112 19.1379 17.112 17.7236C17.112 16.3092 17.5961 15.2484 18.9602 15.2484C19.3122 15.2484 20.0603 15.4694 20.5003 16.3976L22.3925 15.4252Z" fill="black"/>
</g>
</g>
</g>
</g>
<defs>
<clipPath id="clip0_34_628">
<rect width="133.333" height="32" fill="white" transform="translate(0.566406)"/>
</clipPath>
</defs>
</svg>
