<svg width="114" height="32" viewBox="0 0 114 32" fill="none" xmlns="http://www.w3.org/2000/svg">
<g id="digicert_logo.svg" clip-path="url(#clip0_34_614)">
<g id="Artwork_7_">
<g id="Group">
<path id="Vector" d="M0.625488 15.8546C0.625488 13.0425 1.39873 10.8122 2.84855 9.11525C4.3467 7.41828 6.23147 6.59404 8.59951 6.59404C9.37275 6.59404 10.0493 6.69101 10.7259 6.88495C11.4025 7.07889 11.8858 7.32131 12.2724 7.61222C12.659 7.90313 12.9973 8.14555 13.2873 8.43646C13.5772 8.72737 13.7705 8.92131 13.9155 9.16374L14.0605 9.45465H14.1572C14.1088 9.11525 14.0605 8.67889 14.0605 8.29101V0.048584H17.4434V24.7274H14.2055V23.0304L14.2538 21.8668H14.1572C14.1088 21.9637 14.0122 22.0607 13.9639 22.2062C13.8672 22.3516 13.6739 22.6425 13.3839 22.9819C13.094 23.3698 12.7073 23.7092 12.2724 24.0001C11.8375 24.291 11.3058 24.5334 10.5809 24.7759C9.85603 25.0183 9.13111 25.1153 8.30955 25.1153C5.9415 25.1153 4.05674 24.291 2.65524 22.5456C1.3504 20.8486 0.625488 18.6668 0.625488 15.8546ZM4.10506 15.8546C4.10506 17.794 4.58834 19.2971 5.50656 20.4607C6.42478 21.5759 7.63296 22.1577 9.08279 22.1577C10.4843 22.1577 11.7408 21.6243 12.7073 20.5577C13.6739 19.491 14.1572 17.891 14.1572 15.7577C14.1572 14.0607 13.7222 12.5577 12.8523 11.3456C11.9824 10.0849 10.7742 9.45465 9.17944 9.45465C7.77795 9.45465 6.52143 9.98798 5.55488 11.1516C4.54001 12.4122 4.10506 13.9153 4.10506 15.8546Z" fill="#0174C3"/>
<path id="Vector_2" d="M20.2947 3.49101V0.048584H23.7259V3.49101H20.2947ZM20.343 24.7274V7.0304H23.7259V24.7274H20.343Z" fill="#0174C3"/>
<path id="Vector_3" d="M28.897 27.9274C30.3468 28.7031 31.99 29.091 33.7298 29.091C35.4212 29.091 36.7261 28.6546 37.7893 27.8789C38.8041 27.1031 39.3357 25.8425 39.3357 24.0971V22.788L39.3841 21.6728H39.2874C38.1759 23.5153 36.4361 24.4365 34.068 24.4365C31.7 24.4365 29.7669 23.6122 28.3171 21.8668C26.9156 20.1698 26.1907 17.988 26.1907 15.3698C26.1907 12.7516 26.8673 10.6183 28.2204 8.9698C29.6219 7.32131 31.5067 6.49707 33.8747 6.49707C34.648 6.49707 35.3729 6.59404 36.0495 6.73949C36.7261 6.88495 37.2577 7.12737 37.6443 7.41828C38.0309 7.66071 38.3692 7.95162 38.6591 8.19404C38.9491 8.43646 39.1424 8.67889 39.1907 8.87283L39.3841 9.11525H39.4807C39.4324 8.92131 39.4324 8.77586 39.4324 8.58192V6.93343H42.6703V23.9031C42.6703 25.3092 42.4287 26.5698 41.8971 27.588C41.4138 28.7031 40.7372 29.5274 39.8673 30.1092C38.9974 30.7395 38.0792 31.2243 37.0643 31.5153C36.0495 31.8062 34.9379 32.0001 33.7781 32.0001C31.6517 32.0001 29.6219 31.5153 27.7371 30.5456L28.897 27.9274ZM34.6963 21.5759C36.0978 21.5759 37.2093 21.091 38.0309 20.1698C38.9008 19.2001 39.3357 17.6486 39.3357 15.5153C39.3357 11.588 37.6443 9.55162 34.358 9.55162C32.8599 9.55162 31.7 10.0365 30.7818 11.1031C29.9602 12.1698 29.5253 13.5759 29.5253 15.3698C29.5253 17.2122 30.0085 18.7153 30.9268 19.8789C31.845 20.994 33.1015 21.5759 34.6963 21.5759Z" fill="#0174C3"/>
<path id="Vector_4" d="M45.4734 3.49101V0.048584H48.9046V3.49101H45.4734ZM45.4734 24.7274V7.0304H48.8563V24.7274H45.4734Z" fill="#0174C3"/>
<path id="Vector_5" d="M51.3691 15.8546C51.3691 13.1879 52.239 11.0061 54.0271 9.26066C55.7669 7.51521 58.0383 6.59399 60.793 6.59399C62.0978 6.59399 63.306 6.78793 64.3692 7.2243C65.4807 7.66066 66.254 8.09702 66.7373 8.53339L67.4138 9.16369L65.819 11.5394C65.6741 11.394 65.4808 11.2001 65.1908 11.0061C64.9491 10.7637 64.3692 10.4728 63.4993 10.0849C62.6778 9.69702 61.8079 9.55157 60.8896 9.55157C59.1499 9.55157 57.6517 10.1334 56.4918 11.297C55.332 12.4607 54.7521 13.9637 54.7521 15.8061C54.7521 17.6485 55.332 19.1031 56.4918 20.3637C57.6517 21.5758 59.1499 22.1576 60.9863 22.1576C61.9528 22.1576 62.9194 21.9637 63.7893 21.5758C64.7075 21.1879 65.3358 20.8001 65.7707 20.4122L66.399 19.8304L67.7521 22.3031C67.6555 22.4001 67.5588 22.497 67.4622 22.594C67.3172 22.7394 67.0272 22.9334 66.6406 23.2728C66.1573 23.6122 65.7224 23.9031 65.2391 24.097C64.7558 24.3394 64.0793 24.5819 63.2577 24.7758C62.4845 24.9698 61.6146 25.0667 60.7447 25.0667C57.99 25.0667 55.7186 24.194 53.9788 22.4485C52.239 20.8001 51.3691 18.5698 51.3691 15.8546Z" fill="#0174C3"/>
<path id="Vector_6" d="M68.2839 15.8545C68.2839 13.0909 69.1055 10.8606 70.797 9.11511C72.4884 7.41814 74.5665 6.54541 77.1279 6.54541C79.4959 6.54541 81.3807 7.32117 82.7338 8.92117C84.087 10.4727 84.7636 12.4606 84.7636 14.8848L84.6669 16.3393H71.8118C71.9085 18.1818 72.5367 19.6363 73.6966 20.6545C74.8081 21.6727 76.258 22.1575 77.9011 22.1575C78.8193 22.1575 79.6892 21.9636 80.5591 21.6727C81.429 21.3333 82.0572 20.9939 82.4922 20.6545L83.1205 20.1697L84.522 22.6424C84.3286 22.8363 84.0387 23.0787 83.7004 23.3697C83.3138 23.6606 82.5889 24.0484 81.3323 24.4848C80.1725 24.9697 78.9643 25.2121 77.7078 25.2121C74.9531 25.2121 72.7301 24.3393 70.9903 22.5454C69.1538 20.7515 68.2839 18.5212 68.2839 15.8545ZM71.8602 13.8181H81.284C81.2357 12.3636 80.8007 11.2 80.0275 10.4727C79.2543 9.74541 78.2394 9.35753 77.0795 9.35753C75.7264 9.35753 74.6148 9.74541 73.6966 10.5212C72.6817 11.2969 72.0535 12.4121 71.8602 13.8181Z" fill="#0174C3"/>
<path id="Vector_7" d="M87.1316 24.7273V7.03036H90.4179V10.0849L90.3212 11.4425H90.4179C90.8528 10.0849 91.5294 8.96976 92.4959 8.14552C93.5108 7.27279 94.6223 6.83643 95.9755 6.83643L96.8454 6.9334V10.2789C96.5554 10.1819 96.2171 10.1819 95.8789 10.1819C94.7673 10.1819 93.8008 10.5698 92.8826 11.297C91.9643 12.0243 91.3361 13.0425 90.9011 14.3031C90.6112 15.2243 90.4662 16.291 90.4662 17.5031V24.7273H87.1316Z" fill="#0174C3"/>
<path id="Vector_8" d="M101.195 18.2788V9.98785H98.875V7.27269H101.243V2.1333H104.529V7.27269H108.782V9.98785H104.529V17.8424C104.529 18.5212 104.626 19.103 104.819 19.5878C105.013 20.0727 105.254 20.4606 105.496 20.7515C105.737 21.0424 106.076 21.2363 106.414 21.4303C106.801 21.6242 107.091 21.6727 107.381 21.7212C107.671 21.7697 107.961 21.8181 108.251 21.8181L109.024 21.7212V24.7272C108.685 24.7757 108.299 24.8242 107.864 24.8242C107.332 24.8242 106.752 24.7757 106.269 24.7272C105.786 24.6303 105.158 24.4848 104.529 24.2424C103.853 23.9515 103.321 23.6121 102.838 23.1272C102.355 22.6424 101.968 22.0121 101.63 21.1878C101.388 20.3636 101.195 19.3454 101.195 18.2788Z" fill="#0174C3"/>
<path id="Vector_9" d="M111.054 0C109.652 0 108.492 1.11515 108.492 2.5697C108.492 4.02424 109.604 5.13939 111.054 5.13939C112.503 5.13939 113.615 4.02424 113.615 2.5697C113.567 1.11515 112.455 0 111.054 0ZM111.054 4.60606C109.942 4.60606 109.024 3.68485 109.024 2.5697C109.024 1.45455 109.942 0.533333 111.054 0.533333C112.165 0.533333 113.083 1.45455 113.083 2.5697C113.083 3.68485 112.165 4.60606 111.054 4.60606Z" fill="#0174C3"/>
<g id="Group_2">
<path id="Vector_10" d="M110.184 3.92736V1.11523H111.054C111.295 1.11523 111.489 1.16372 111.585 1.2122C111.73 1.26069 111.827 1.40614 111.924 1.50311C112.02 1.64857 112.069 1.79402 112.069 1.98796C112.069 2.1819 112.02 2.32736 111.924 2.47281C111.827 2.61826 111.73 2.71523 111.537 2.76372C111.585 2.8122 111.585 2.86069 111.634 2.90917L112.214 4.02433H111.73L111.15 2.90917H110.57V4.02433C110.57 3.92736 110.184 3.92736 110.184 3.92736ZM110.522 2.47281H111.102C111.295 2.47281 111.392 2.42433 111.489 2.32736C111.585 2.23039 111.634 2.13342 111.634 1.93948C111.634 1.74554 111.537 1.60008 111.44 1.50311C111.344 1.45463 111.247 1.40614 111.054 1.40614H110.57L110.522 2.47281Z" fill="#0174C3"/>
</g>
</g>
</g>
</g>
<defs>
<clipPath id="clip0_34_614">
<rect width="112.941" height="32" fill="white" transform="translate(0.625488)"/>
</clipPath>
</defs>
</svg>
