<svg width="124" height="32" viewBox="0 0 124 32" fill="none" xmlns="http://www.w3.org/2000/svg">
<g id="hotjar_logo.svg" clip-path="url(#clip0_34_586)">
<g id="Group">
<g id="Clip path group">
<mask id="mask0_34_586" style="mask-type:luminance" maskUnits="userSpaceOnUse" x="0" y="0" width="124" height="32">
<g id="SVGID_2_">
<path id="Vector" d="M123.744 0H0.666626V32H123.744V0Z" fill="white"/>
</g>
</mask>
<g mask="url(#mask0_34_586)">
<g id="Group_2">
<path id="Vector_2" d="M32.8601 24.2667V0.0666504H36.5696V9.59998C37.762 7.86665 39.4843 6.93332 41.869 6.93332C43.8562 6.93332 45.446 7.53332 46.5059 8.73332C47.632 9.93332 48.1619 11.6 48.1619 13.7333V24.2667H44.4524V14.2666C44.4524 11.5333 43.26 10.1333 40.8091 10.1333C39.6168 10.1333 38.5569 10.5333 37.8282 11.2666C37.0333 12 36.6359 13.0666 36.6359 14.4V24.2667H32.8601Z" fill="#323232"/>
<path id="Vector_3" d="M65.9146 22.2C64.2586 23.8667 62.1388 24.6667 59.6217 24.6667C57.1045 24.6667 54.9847 23.8 53.3287 22.1334C51.6727 20.4667 50.8115 18.3334 50.8115 15.7334C50.8115 13.1334 51.6727 11 53.3287 9.40002C54.9847 7.73335 57.1045 6.93335 59.6217 6.93335C62.1388 6.93335 64.2586 7.73335 65.9146 9.40002C67.5707 11.0667 68.4318 13.2 68.4318 15.7334C68.3656 18.4 67.5707 20.4667 65.9146 22.2ZM56.0446 20.0667C56.9058 21.1334 58.0981 21.6667 59.6217 21.6667C61.079 21.6667 62.2713 21.1334 63.1987 20.0667C64.0598 19 64.5235 17.6 64.5235 15.8C64.5235 14.0667 64.0598 12.6 63.1987 11.6C62.2713 10.5333 61.079 10 59.6217 10C58.1643 10 56.972 10.5333 56.0446 11.5333C55.1835 12.6 54.7198 14 54.7198 15.8C54.7198 17.6 55.1835 19 56.0446 20.0667Z" fill="#323232"/>
<path id="Vector_4" d="M77.0432 24.6666C73.5987 24.6666 71.8764 22.7999 71.8764 19.0666V10.5333H69.293V7.33325H72.0089L72.87 2.33325H75.6522V7.33325H82.3426V10.5333H75.6522V18.9999C75.6522 20.5333 76.2483 21.3333 77.3744 21.3333C78.4343 21.3333 79.3617 20.3333 80.2228 18.3999L83.1375 19.8666C81.6802 23.0666 79.6929 24.6666 77.0432 24.6666Z" fill="#323232"/>
<path id="Vector_5" d="M84.3298 32C82.6737 32 81.2826 31.5333 80.2228 30.6L81.6139 27.6667C82.2763 28.4667 83.0049 28.8667 83.7998 28.8667C84.8597 28.8667 85.3896 28.2 85.3896 26.8667V7.33333H89.0992V26.8667C89.0992 28.6667 88.6355 30 87.7743 30.8C86.8469 31.6 85.7208 32 84.3298 32ZM87.2444 4.46667C86.6482 4.46667 86.052 4.26667 85.5883 3.86667C85.3896 3.66667 85.1909 3.4 85.0584 3.13333C84.9259 2.86667 84.8597 2.53333 84.9259 2.26667C84.9259 1.93333 84.9922 1.66667 85.0584 1.4C85.1909 1.13333 85.3234 0.866667 85.5883 0.666667C86.052 0.266667 86.6482 0 87.2444 0C87.8406 0 88.4367 0.2 88.9004 0.666667C89.0992 0.866667 89.2979 1.13333 89.4304 1.4C89.5628 1.66667 89.6291 2 89.5628 2.26667C89.5628 2.53333 89.4966 2.86667 89.3641 3.13333C89.2316 3.4 89.0992 3.66667 88.8342 3.86667C88.6355 4.06667 88.3705 4.26667 88.1055 4.33333C87.8406 4.46667 87.5094 4.53333 87.2444 4.46667Z" fill="#323232"/>
<path id="Vector_6" d="M98.3729 24.6667C96.4519 24.6667 94.9284 24.2 93.736 23.2C92.5437 22.2667 91.9475 20.9334 91.9475 19.3334C91.9475 17.8667 92.5437 16.6 93.8023 15.5333C95.0609 14.4667 96.5844 14 98.4392 14C100.36 14 101.95 14.6 103.275 15.8667V13.8C103.275 12.6 102.944 11.6667 102.347 11C101.751 10.3333 100.89 10 99.764 10C97.4456 10 96.0545 11.2 95.5246 13.5333L92.08 12.8C92.5437 11 93.4711 9.53335 94.7959 8.53335C96.1207 7.53335 97.843 6.93335 99.8965 6.93335C102.082 6.93335 103.871 7.53335 105.13 8.66668C106.388 9.86668 107.051 11.5334 107.051 13.8V24.2H103.407V22.0667C102.215 23.8 100.559 24.6667 98.3729 24.6667ZM99.1016 21.8667C100.758 21.8667 102.149 21 103.341 19.3334V18.8C102.215 17.4 100.758 16.7334 99.1016 16.7334C98.108 16.7334 97.3793 17 96.7169 17.4667C96.4519 17.6667 96.187 17.9333 96.0545 18.2667C95.922 18.6 95.7895 18.9333 95.8558 19.2667C95.8558 19.6 95.922 20 96.0545 20.3334C96.187 20.6667 96.4519 20.9334 96.7169 21.1334C97.3131 21.6667 98.108 21.8667 99.1016 21.8667Z" fill="#323232"/>
<path id="Vector_7" d="M110.694 24.2667V7.33332H114.337V10.2666C115.265 8.13332 116.854 7.06665 119.107 7.06665C120.431 7.06665 121.558 7.53332 122.419 8.39998C123.28 9.26665 123.744 10.4667 123.744 11.9333C123.744 12.8 123.611 13.7333 123.28 14.5333L119.835 14.2C119.902 13.7333 119.968 13.2667 119.968 12.8C119.968 11.0667 119.239 10.2 117.848 10.2C116.854 10.2 116.06 10.7333 115.397 11.7333C114.735 12.8 114.403 14.1333 114.403 15.8V24.2H110.694V24.2667Z" fill="#323232"/>
<path id="Vector_8" d="M9.543 9.93333C12.3252 8.4 16.1672 6.26667 16.1672 0H11.5303C11.5303 3.46667 9.87421 4.4 7.29079 5.86667C4.50864 7.46667 0.666626 9.6 0.666626 15.8H5.30354C5.30354 12.3333 6.95958 11.3333 9.543 9.93333Z" fill="#FF3C00"/>
<path id="Vector_9" d="M17.4919 8.53345C17.4919 12.0001 15.8359 12.9334 13.2525 14.4001C10.4703 15.9334 6.6283 18.0668 6.6283 24.3334H11.2652C11.2652 20.8668 12.9212 19.9334 15.5047 18.4668C18.2868 16.9334 22.1288 14.8001 22.1288 8.53345H17.4919Z" fill="#FF3C00"/>
</g>
</g>
</g>
</g>
</g>
<defs>
<clipPath id="clip0_34_586">
<rect width="123.077" height="32" fill="white" transform="translate(0.666626)"/>
</clipPath>
</defs>
</svg>
