<svg width="159" height="32" viewBox="0 0 159 32" fill="none" xmlns="http://www.w3.org/2000/svg">
<g id="linktree_logo.svg" clip-path="url(#clip0_34_600)">
<path id="Vector" d="M0.743652 3.424H5.26653V27.264H17.7841V31.456H0.743652V3.424ZM22.2432 3.424C23.7721 3.424 25.078 4.608 25.078 6.176C25.078 7.744 23.804 8.992 22.2432 8.992C20.6825 8.992 19.4085 7.744 19.4085 6.176C19.4085 4.64 20.6507 3.424 22.2432 3.424ZM20.0137 11.264H24.3454V31.488H20.0137V11.264ZM26.9254 11.264H31.2572V14.048C32.5312 11.904 34.7289 10.72 37.6593 10.72C42.3732 10.72 45.3036 14.4 45.3036 20.224V31.456H40.9718V20.64C40.9718 16.864 39.3155 14.72 36.3534 14.72C33.0727 14.72 31.289 16.96 31.289 20.992V31.456H26.9254V11.264ZM47.5969 3.424H51.9286V21.152L60.0188 11.264H65.4654L56.8337 21.376L65.4654 31.456H60.0188L51.9286 21.6V31.456H47.5969V3.424ZM67.1854 6.112H71.6127V11.264H76.7726V14.88H71.6127V25.28C71.6127 26.592 72.409 27.424 73.683 27.424H76.5815V31.488H73.1097C69.3513 31.488 67.2172 29.248 67.2172 25.28L67.1854 6.112ZM78.9703 11.264H82.9836V13.76C84.0665 11.84 85.8502 10.72 88.0479 10.72C88.7168 10.72 89.0672 10.752 89.5768 10.912V14.944C89.2901 14.88 88.8442 14.784 87.9524 14.784C84.7673 14.784 83.0154 17.472 83.0154 22.08V31.424H78.6837V11.264H78.9703ZM99.7374 10.72C104.515 10.72 109.707 13.6 109.707 21.824V22.4H94.1634C94.5137 26.016 96.5841 28 100.088 28C102.604 28 104.706 26.656 105.184 24.768H109.611C109.133 28.8 104.929 32 100.056 32C93.813 32 89.8635 27.936 89.8635 21.344C89.8635 15.488 93.6538 10.72 99.7374 10.72ZM105.057 18.816C104.451 16.32 102.477 14.752 99.7374 14.752C97.0937 14.752 95.2145 16.352 94.4819 18.816H105.057ZM121.492 10.72C126.269 10.72 131.461 13.6 131.461 21.824V22.4H115.918C116.268 26.016 118.338 28 121.842 28C124.358 28 126.461 26.656 126.938 24.768H131.334C130.888 28.8 126.684 32 121.81 32C115.567 32 111.618 27.936 111.618 21.344C111.618 15.488 115.408 10.72 121.492 10.72ZM126.811 18.816C126.206 16.32 124.231 14.752 121.46 14.752C118.816 14.752 116.937 16.352 116.204 18.816H126.811ZM132.512 10.656H140.252L134.742 5.408L137.768 2.304L143.023 7.68V0H147.578V7.68L152.833 2.304L155.859 5.408L150.349 10.656H158.089V15.008H150.285L155.859 20.384L152.833 23.424L145.285 15.84L137.736 23.424L134.71 20.384L140.252 14.976H132.449V10.656H132.512ZM143.055 21.184H147.61V31.488H143.055V21.184Z" fill="black"/>
</g>
<defs>
<clipPath id="clip0_34_600">
<rect width="157.377" height="32" fill="white" transform="translate(0.743652)"/>
</clipPath>
</defs>
</svg>
