<svg width="103" height="32" viewBox="0 0 103 32" fill="none" xmlns="http://www.w3.org/2000/svg">
<g id="qualys_logo.svg" clip-path="url(#clip0_34_610)">
<path id="Vector" d="M13.9566 0C22.7225 0 27.1301 4.68224 27.1301 4.68224C27.1301 4.68224 27.634 8.14807 27.3124 15.1266C26.8265 25.6684 13.9598 31.9993 13.9586 32C13.9574 32.0007 1.09084 25.6684 0.604856 15.1266C0.283235 8.14807 0.787156 4.68224 0.787156 4.68224C0.787156 4.68224 5.19078 0 13.9566 0Z" fill="#ED2E26"/>
<path id="Vector_2" d="M43.6042 8.27808C41.56 8.28039 39.6002 9.0921 38.1547 10.5351C36.7092 11.9782 35.8961 13.9347 35.8938 15.9755C35.8938 18.5447 36.9754 20.8337 39.0214 22.5959C40.9376 24.2458 43.6854 25.3833 46.858 25.9104C47.3118 25.6616 48.1697 24.822 48.4428 24.247C46.1053 23.8445 45.0333 23.445 45.0333 23.445C45.3387 23.4161 45.6403 23.3556 45.9333 23.2647C49.0561 22.3903 51.3453 19.3111 51.3146 15.9756C51.2755 11.7313 47.8558 8.27808 43.6042 8.27808ZM43.6042 21.4569C42.5183 21.4568 41.4567 21.1353 40.5538 20.533C39.6509 19.9307 38.9471 19.0746 38.5316 18.073C38.116 17.0714 38.0073 15.9693 38.2192 14.906C38.431 13.8428 38.954 12.8661 39.7219 12.0995C40.4898 11.3329 41.4681 10.8109 42.5332 10.5994C43.5982 10.3879 44.7022 10.4965 45.7055 10.9113C46.7088 11.3262 47.5663 12.0288 48.1696 12.9302C48.7729 13.8316 49.0949 14.8914 49.0949 15.9755C49.0933 17.4287 48.5143 18.822 47.4849 19.8496C46.4556 20.8772 45.0599 21.4552 43.6042 21.4569ZM100.614 20.7243C100.842 20.5123 101.142 20.3944 101.454 20.3944C101.766 20.3944 102.067 20.5123 102.295 20.7243C102.508 20.9572 102.625 21.2609 102.625 21.5759C102.625 21.8908 102.508 22.1945 102.295 22.4274C102.067 22.6393 101.766 22.757 101.454 22.757C101.143 22.757 100.842 22.6393 100.614 22.4274C100.401 22.1945 100.284 21.8908 100.284 21.5759C100.284 21.2609 100.401 20.9572 100.614 20.7243ZM100.784 22.2631C100.966 22.4331 101.205 22.5277 101.454 22.5277C101.703 22.5277 101.943 22.4331 102.125 22.2631C102.293 22.0729 102.385 21.8282 102.385 21.5748C102.385 21.3214 102.293 21.0767 102.125 20.8865C101.942 20.7179 101.703 20.6242 101.454 20.6242C101.206 20.6242 100.966 20.7179 100.784 20.8865C100.616 21.0768 100.524 21.3215 100.524 21.5748C100.524 21.8282 100.616 22.0729 100.784 22.2631ZM101.955 21.269C101.958 21.3572 101.931 21.4438 101.878 21.5146C101.825 21.5854 101.75 21.6361 101.665 21.6585L102 22.1832H101.739L101.434 21.6736H101.279V22.1832H101.059V20.884H101.539C101.649 20.8793 101.757 20.917 101.84 20.9892C101.878 21.0247 101.908 21.0681 101.928 21.1164C101.948 21.1647 101.957 21.2167 101.955 21.2689V21.269ZM101.279 21.0888V21.4687H101.509C101.567 21.4718 101.623 21.453 101.667 21.4161C101.686 21.3988 101.701 21.3775 101.711 21.3538C101.721 21.3301 101.725 21.3045 101.724 21.2788C101.724 21.1523 101.653 21.089 101.509 21.089L101.279 21.0888ZM86.2438 19.512L83.6396 12.6137H81.3191L85.1189 22.2428C85.1189 22.2428 83.4379 26.2319 83.4386 26.2316C84.5445 26.2316 85.7544 26.1536 86.2272 24.9903C87.3374 22.2617 91.2036 12.6138 91.2036 12.6138H88.8829L86.2438 19.512ZM77.5396 22.9534C77.5396 22.9534 79.694 22.9136 79.694 21.4546V8.35013H77.5396V22.9534ZM73.0727 13.9717C72.4728 13.1366 71.3011 12.3261 69.5764 12.3261C66.6325 12.3261 64.4124 14.6119 64.4124 17.6429C64.4124 19.0596 64.8976 20.3762 65.7787 21.3499C66.7318 22.4033 68.045 22.96 69.5764 22.96C71.06 22.96 72.3305 22.3558 73.0727 21.3208V22.9531C73.0727 22.9531 75.227 22.919 75.227 21.4553V12.6134H73.0727V13.9717ZM69.8466 20.9358C68.5444 20.9358 66.5965 20.0682 66.5659 17.6781V17.661C66.5659 15.7736 67.9606 14.3503 69.8101 14.3503C71.1916 14.3503 72.3144 15.0709 72.816 16.2839C73.0182 16.7185 73.1123 17.1953 73.0904 17.674C73.0774 18.1599 72.9649 18.6381 72.7598 19.079C72.2531 20.2417 71.1637 20.9358 69.8464 20.9358H69.8466ZM60.488 18.2183C60.488 19.9542 59.5847 20.9198 57.9461 20.9358C56.2838 20.9358 55.476 19.9939 55.476 18.0565V12.6137H53.3222V18.4879C53.3222 19.3358 53.4653 20.5449 54.1476 21.4908C54.8448 22.4574 55.9468 22.9518 57.4223 22.9602H57.4828C59.2476 22.9602 60.1564 22.1616 60.596 21.5409V22.953C60.596 22.953 62.6418 22.9182 62.6418 21.527V12.6137H60.4874L60.488 18.2183ZM96.3676 16.6998C95.2483 16.2169 94.4345 15.7992 94.4489 15.1512C94.4584 14.7225 95.024 14.312 95.6121 14.3324C96.2416 14.3542 96.7082 14.7874 96.9682 15.1342C96.9682 15.1342 98.1448 14.1298 98.2872 14.0225C97.9963 13.5378 97.5853 13.136 97.0938 12.8558C96.6024 12.5756 96.047 12.4263 95.481 12.4223C94.6905 12.4006 93.9236 12.6928 93.3485 13.2347C92.7734 13.7766 92.437 14.5241 92.4131 15.3132C92.3819 16.7256 93.2105 17.3085 94.2973 17.9239L96.0861 18.9283C96.4988 19.2164 96.6934 19.4315 96.6836 19.8747C96.6683 20.5693 96.0864 21.0195 95.3328 21.0639C94.7785 21.0967 94.3232 20.7767 93.8919 20.326C93.0524 19.4489 91.7638 19.8706 91.3696 19.9974C92.1898 21.8796 93.7405 22.9756 95.2899 23.0096C97.2413 23.0525 98.8023 21.6147 98.8441 19.7363C98.8631 18.8317 98.4661 17.7081 96.3676 16.6998Z" fill="#262626"/>
<path id="Vector_3" d="M7.37881 13.8574C7.37881 10.13 10.3305 7.09757 13.9586 7.09757C15.7045 7.09954 17.3783 7.7928 18.6128 9.02526C19.8474 10.2577 20.5418 11.9287 20.5438 13.6717C20.5438 16.5655 18.0519 18.9465 16.1314 20.17C16.8764 20.5944 18.5208 21.04 20.0951 21.1841C21.2464 20.298 22.1788 19.1599 22.8204 17.8575C23.462 16.5551 23.7958 15.1232 23.7961 13.6718C23.8004 12.3793 23.5491 11.0988 23.0567 9.90344C22.5642 8.70813 21.8403 7.62162 20.9264 6.70619C20.0124 5.79076 18.9265 5.06442 17.7308 4.56883C16.5352 4.07323 15.2532 3.81812 13.9586 3.81812C12.664 3.81812 11.3821 4.07323 10.1864 4.56883C8.9907 5.06442 7.90477 5.79076 6.99085 6.70619C6.07693 7.62162 5.35299 8.70813 4.86054 9.90344C4.3681 11.0988 4.11683 12.3793 4.12115 13.6718C4.12115 16.9424 5.48528 19.8479 8.06591 22.0742C10.4787 24.1556 14.008 25.545 18.0263 26.2027C18.8968 25.7224 20.3859 24.3045 20.9441 23.4745C17.5881 23.0436 14.412 22.2265 12.283 21.1114C9.02881 19.4073 7.37881 16.9668 7.37881 13.8574Z" fill="white"/>
</g>
<defs>
<clipPath id="clip0_34_610">
<rect width="102.128" height="32" fill="white" transform="translate(0.497559)"/>
</clipPath>
</defs>
</svg>
