<svg width="183" height="32" viewBox="0 0 183 32" fill="none" xmlns="http://www.w3.org/2000/svg">
<g id="vk_logo.svg">
<path id="Vector" d="M0 15.3333C0 8.10533 0 4.49133 2.24533 2.24533C4.49067 -0.000666618 8.10533 2.34616e-10 15.3333 2.34616e-10H16.6667C23.8947 2.34616e-10 27.5093 0 29.7547 2.24533C32 4.49133 32 8.10533 32 15.3333V16.6667C32 23.8947 32 27.5093 29.7547 29.7547C27.5087 32 23.8947 32 16.6667 32H15.3333C8.10533 32 4.49133 32 2.24533 29.7547C0 27.5087 0 23.8947 0 16.6667V15.3333Z" fill="black"/>
<path id="Vector_2" fill-rule="evenodd" clip-rule="evenodd" d="M8.66666 10H6.33333C5.66666 10 5.53333 10.3133 5.53333 10.66C5.53333 11.278 6.32399 14.3433 9.21666 18.3973C11.1447 21.166 13.8613 22.6667 16.3333 22.6667C17.8167 22.6667 18 22.3333 18 21.7593V19.6667C18 19 18.14 18.8667 18.61 18.8667C18.9567 18.8667 19.55 19.04 20.934 20.3747C22.516 21.9567 22.7767 22.6667 23.6667 22.6667H26C26.6667 22.6667 27 22.3333 26.8073 21.6753C26.5973 21.02 25.842 20.0687 24.8393 18.9413C24.2953 18.2987 23.4793 17.606 23.2327 17.26C22.886 16.8153 22.986 16.6173 23.2327 16.222C23.2327 16.222 26.0753 12.2173 26.3727 10.858C26.5207 10.3633 26.3727 10 25.666 10H23.3333C22.74 10 22.4667 10.3133 22.3187 10.66C22.3187 10.66 21.132 13.552 19.4513 15.4307C18.9073 15.9747 18.66 16.148 18.3633 16.148C18.2153 16.148 18.0007 15.9747 18.0007 15.4807V10.858C18.0007 10.2647 17.828 10 17.334 10H13.6673C13.2967 10 13.074 10.2753 13.074 10.5367C13.074 11.0987 13.914 11.2287 14.0007 12.81V16.2467C14.0007 17 13.8647 17.1367 13.5673 17.1367C12.7767 17.1367 10.8527 14.2313 9.71133 10.9073C9.48733 10.26 9.26266 10 8.66666 10Z" fill="white"/>
<g id="Group">
<path id="Vector_3" d="M54.5953 15.7201C55.864 15.1267 56.682 14.1401 56.682 12.6174C56.682 10.3054 54.5673 8.66939 51.522 8.66939H44.5V23.3334H51.8313C54.99 23.3334 57.19 21.6134 57.19 19.2727C57.19 17.4961 56.0333 16.1714 54.5953 15.7201ZM47.7427 11.3487H51.5213C52.6493 11.3487 53.4393 12.0254 53.4393 12.9554C53.4393 13.8854 52.6493 14.5354 51.5213 14.5354H47.7427V11.3487ZM51.8313 20.6547H47.7427V17.0734H51.8313C53.1007 17.0734 53.9467 17.8067 53.9467 18.8781C53.9467 19.9494 53.1 20.6547 51.8313 20.6547ZM69.2513 23.3334H73.5093L66.7693 15.7201L72.9453 8.66939H69.082L64.1753 14.3661H63.3853V8.66939H60.1427V23.3334H63.3853V17.4961H64.1753L69.2513 23.3334ZM81.7867 23.6154C86.3833 23.6154 89.6267 20.4567 89.6267 16.0021C89.6267 11.5474 86.3833 8.38739 81.7867 8.38739C77.19 8.38739 73.9473 11.5461 73.9473 16.0014C73.9473 20.4567 77.19 23.6154 81.7867 23.6154ZM81.7867 20.6547C79.136 20.6547 77.3313 18.7654 77.3313 16.0014C77.3313 13.2374 79.136 11.3481 81.7867 11.3481C84.438 11.3481 86.2427 13.2381 86.2427 16.0014C86.2427 18.7647 84.438 20.6547 81.7867 20.6547ZM102.259 8.66939V14.4507H95.6887V8.66939H92.446V23.3334H95.6887V17.4114H102.259V23.3334H105.503V8.66939H102.259ZM112.827 23.3334H116.071V11.6307H121.147V8.66939H107.751V11.6307H112.827V23.3334ZM128.827 8.38739C125.979 8.38739 123.469 9.85405 122.735 12.3921L125.725 12.8994C126.176 11.9967 127.191 11.1507 128.657 11.1507C130.434 11.1507 131.477 12.4201 131.619 14.3374H128.46C124.145 14.3374 122.002 16.2267 122.002 18.9341C122.002 21.6694 124.117 23.6154 127.107 23.6154C129.503 23.6154 131.111 22.2334 131.816 21.0207L132.493 23.3341H134.89V15.0981C134.89 10.8401 132.577 8.38672 128.827 8.38672V8.38739ZM127.868 20.8801C126.289 20.8801 125.273 20.0621 125.273 18.7934C125.273 17.6654 126.091 16.8754 128.573 16.8754H131.647C131.647 19.2727 130.124 20.8801 127.868 20.8801ZM147.517 23.3334H151.775L145.035 15.7201L151.211 8.66939H147.347L142.441 14.3661H141.651V8.66939H138.408V23.3334H141.651V17.4961H142.441L147.517 23.3334ZM157.275 23.3334H160.519V11.6307H165.595V8.66939H152.199V11.6307H157.275V23.3334ZM181.679 15.8321C181.679 11.6021 178.52 8.38739 174.065 8.38739C169.609 8.38739 166.451 11.5741 166.451 16.0014C166.451 20.4287 169.609 23.6154 174.065 23.6154C177.11 23.6154 179.987 22.1774 181.086 19.3854L178.041 18.8781C177.335 19.9214 175.982 20.6547 174.262 20.6547C171.78 20.6547 170.145 19.1314 169.835 16.8754H181.622C181.65 16.5654 181.679 16.2274 181.679 15.8321ZM174.065 11.2074C176.095 11.2074 177.617 12.5047 178.153 14.3374H170.032C170.567 12.4481 172.091 11.2074 174.065 11.2074Z" fill="black"/>
</g>
</g>
</svg>
