<svg width="158" height="32" viewBox="0 0 158 32" fill="none" xmlns="http://www.w3.org/2000/svg">
<g id="xerox_logo.svg" clip-path="url(#clip0_34_602)">
<g id="Group">
<path id="Vector" d="M150.566 1.18341H149.513V0.525879H152.365V1.18341H151.312V4.69026H150.61L150.566 1.18341ZM152.979 0.525879H154.163L155.216 4.03273H155.304L156.357 0.525879H157.542V4.69026H156.884V1.18341H156.752L155.699 4.69026H154.734L153.681 1.18341H153.593V4.69026H152.935L152.979 0.525879Z" fill="#231F20"/>
<path id="Vector_2" d="M107.92 16C107.92 10.6082 105.858 5.87397 100.33 5.87397C94.8014 5.87397 92.6954 10.6521 92.6954 16C92.6954 21.3479 94.8014 26.126 100.33 26.126C105.858 26.126 107.92 21.3479 107.92 16ZM116.08 16C116.08 25.2055 109.587 32 100.373 32C90.9843 32 84.6225 25.4685 84.6225 16C84.5787 7.0137 90.8966 0 100.33 0C109.543 0 116.08 6.79452 116.08 16Z" fill="#D92231"/>
<path id="Vector_3" d="M53.3401 13.0192H39.081C39.2126 12.011 39.5197 11.0027 40.0023 10.0822C41.2747 7.53973 43.6878 5.87397 46.7151 5.87397C50.8393 5.87397 53.3401 8.67945 53.3401 12.8438V13.0192ZM60.7549 13.1507C60.36 8.9863 58.8683 5.65479 56.2797 3.37534C53.8227 1.18356 50.5321 0 46.4518 0C43.4245 0 39.6074 1.05205 36.7995 3.37534C33.465 6.09315 30.8765 10.389 30.8765 16.1753C30.8765 21.1726 32.4998 25.1616 35.3955 27.8795C38.2912 30.5534 42.3277 32 47.3293 32C51.3658 32 56.2358 30.4658 58.2979 29.1945C59.0438 28.7562 59.2631 28.537 59.0876 27.7918L57.7714 24.1096C57.6398 23.5397 56.9378 23.3644 56.4113 23.6274C55.5777 24.0658 54.7441 24.4164 53.8666 24.7671C52.0677 25.4247 50.1811 25.9068 48.4262 25.9068C44.6969 25.9068 42.547 24.8986 40.9237 23.0137C39.8707 21.8301 39.3003 20.3397 39.081 18.5863H59.7457C60.4916 18.5863 60.8426 18.0603 60.8426 17.1836V15.6932C60.8426 14.9479 60.7987 13.8521 60.7549 13.1507Z" fill="#D92231"/>
<path id="Vector_4" d="M68.1698 4.42726C70.4951 1.40261 74.1367 0.0437012 80.1036 0.0437012C81.5076 0.0437012 82.9115 0.175208 84.3155 0.482057C85.0175 0.6574 85.1491 1.18343 84.9736 1.92863L84.2716 5.39165C84.0962 6.04918 83.9207 6.22452 83.438 6.22452C83.3064 6.22452 83.1748 6.22452 82.9993 6.18069C82.5167 6.09302 81.1127 5.96151 80.4985 5.96151C77.515 5.96151 76.111 6.70671 75.058 7.8026C73.8296 9.11767 73.7857 11.0903 73.7857 14.5533V29.9834C73.7857 30.9916 73.3469 31.5615 72.2501 31.5615H67.5117C66.5026 31.5615 66.0638 31.0793 65.9761 29.9834V14.8163C66.0638 9.33685 66.3709 6.70671 68.1698 4.42726Z" fill="#D92231"/>
<path id="Vector_5" d="M132.139 10.8712C133.192 9.77533 135.648 6.75067 138.369 1.57807C138.851 0.701356 139.246 0.482178 139.86 0.482178H144.906C145.389 0.482178 145.915 0.701356 145.608 1.57807C143.59 7.53971 138.983 12.8 136.438 15.474C139.202 18.1041 144.116 24.3288 146.442 30.4219C146.661 30.9918 146.529 31.6055 145.389 31.6055H139.334C138.72 31.6055 138.193 31.5616 137.798 30.5096C136.307 26.7835 133.937 22.8383 131.261 20.252C128.321 23.3644 126.084 27.1781 124.592 30.5096C124.197 31.3425 123.846 31.6055 123.057 31.6055H117.485C117.09 31.6055 116.739 31.1671 116.958 30.5096C118.625 25.9945 121.916 20.3397 126.61 16.0877C123.013 11.6164 119.459 6.13697 118.055 1.57807C117.836 0.876698 118.186 0.482178 118.713 0.482178H125.25C125.952 0.482178 126.347 0.789027 126.698 1.57807C128.278 5.3041 130.471 8.85478 132.139 10.8712Z" fill="#D92231"/>
<path id="Vector_6" d="M15.3012 10.8712C16.3542 9.77533 18.8111 6.75067 21.5313 1.57807C21.9701 0.701356 22.4088 0.482178 23.0231 0.482178H28.1125C28.5512 0.482178 29.1216 0.701356 28.8145 1.57807C26.7963 7.53971 22.1894 12.8 19.6447 15.474C22.4088 18.1041 27.3227 24.3288 29.6481 30.4219C29.8236 30.9918 29.7358 31.6055 28.5951 31.6055H22.5404C21.9262 31.6055 21.4436 31.5616 21.0048 30.5096C19.5131 26.7835 17.1439 22.8383 14.4676 20.252C11.528 23.3644 9.29041 27.1781 7.79868 30.4657C7.44769 31.2986 7.0967 31.5616 6.26308 31.5616H0.691051C0.296182 31.5616 -0.0548121 31.1233 0.164559 30.4657C1.83178 25.9507 5.12235 20.2959 9.8169 16.0438C6.17534 11.6164 2.57764 6.13697 1.17367 1.57807C0.998171 0.876698 1.34916 0.482178 1.87566 0.482178H8.41292C9.11491 0.482178 9.46591 0.789027 9.86078 1.57807C11.3964 5.3041 13.634 8.85478 15.3012 10.8712Z" fill="#D92231"/>
</g>
</g>
<defs>
<clipPath id="clip0_34_602">
<rect width="157.377" height="32" fill="white" transform="translate(0.120605)"/>
</clipPath>
</defs>
</svg>
